<svg width="190" height="50" viewBox="0 0 190 50" fill="none" xmlns="http://www.w3.org/2000/svg">
<path d="M167.373 20.7819H168.67V22.5075C169.024 21.949 169.491 21.4708 170.04 21.104C170.656 20.7284 171.364 20.5288 172.085 20.5267C172.556 20.5256 173.022 20.6164 173.458 20.7941C173.866 20.9715 174.234 21.2299 174.54 21.5536C174.849 21.9607 175.087 22.418 175.242 22.9055C175.618 22.1868 176.168 21.5737 176.843 21.1222C177.455 20.7273 178.168 20.5164 178.896 20.5146C179.543 20.4928 180.18 20.6734 180.719 21.031C181.253 21.3848 181.663 21.8968 181.892 22.4954C182.162 23.103 182.278 24.0448 182.278 25.2843V30.7193H180.971V25.2964C180.971 24.2331 180.898 23.501 180.746 23.0999C180.587 22.7053 180.315 22.3669 179.963 22.1278C179.57 21.8853 179.115 21.7619 178.653 21.7723C178.039 21.7678 177.439 21.9547 176.937 22.307C176.426 22.6813 176.035 23.1965 175.813 23.7896C175.591 24.3972 175.454 25.4088 175.454 26.8276V30.7193H174.172V25.6397C174.172 24.4245 174.105 23.6286 173.95 23.185C173.811 22.7748 173.542 22.4209 173.185 22.1764C172.791 21.9069 172.322 21.7696 171.845 21.7845C171.249 21.7839 170.667 21.9709 170.183 22.3192C169.669 22.6759 169.271 23.177 169.041 23.7592C168.783 24.3668 168.67 25.2782 168.67 26.536V30.7436H167.373V20.7819Z" fill="#CCCCCC"/>
<path d="M150.725 20.7819H152.007V22.5075C152.365 21.9521 152.832 21.4748 153.38 21.104C153.997 20.7315 154.703 20.5321 155.424 20.5267C155.895 20.5264 156.361 20.6172 156.798 20.7941C157.205 20.9669 157.57 21.226 157.867 21.5536C158.189 21.9556 158.433 22.4141 158.587 22.9055C158.968 22.1899 159.518 21.5779 160.188 21.1222C160.807 20.726 161.526 20.5151 162.26 20.5146C162.901 20.4929 163.533 20.6721 164.068 21.0273C164.602 21.3824 165.012 21.8957 165.24 22.4954C165.511 23.103 165.641 24.0448 165.641 25.2843V30.7193H164.32V25.2964C164.32 24.2331 164.259 23.501 164.107 23.1C163.953 22.7 163.675 22.3595 163.314 22.1278C162.92 21.8834 162.463 21.7598 161.999 21.7723C161.389 21.7661 160.794 21.9533 160.297 22.307C159.785 22.6808 159.392 23.196 159.167 23.7896C158.93 24.3972 158.8 25.4089 158.8 26.8276V30.7193H157.524V25.6397C157.524 24.4245 157.445 23.6286 157.299 23.185C157.151 22.775 156.878 22.422 156.518 22.1764C156.128 21.9086 155.663 21.7714 155.191 21.7845C154.591 21.7852 154.006 21.972 153.517 22.3192C153 22.6748 152.602 23.1761 152.371 23.7592C152.128 24.3668 152.007 25.2782 152.007 26.536V30.7436H150.725V20.7819Z" fill="#CCCCCC"/>
<path d="M144.097 20.5268C144.814 20.5068 145.526 20.6441 146.185 20.9291C146.843 21.2141 147.431 21.6399 147.907 22.1765C148.808 23.1723 149.302 24.4712 149.289 25.8145C149.276 27.1578 148.757 28.4469 147.837 29.4252C146.886 30.4703 145.634 30.9746 144.097 30.9746C143.4 31.0018 142.705 30.8786 142.06 30.6133C141.414 30.3481 140.834 29.947 140.357 29.4374C139.434 28.4587 138.913 27.169 138.897 25.8241C138.881 24.4792 139.37 23.1772 140.269 22.1765C140.75 21.6409 141.341 21.2161 142.002 20.9313C142.663 20.6464 143.377 20.5085 144.097 20.5268ZM144.097 21.7724C143.584 21.7683 143.076 21.8712 142.605 22.0747C142.134 22.2782 141.711 22.5778 141.363 22.9542C140.986 23.33 140.688 23.7772 140.487 24.2697C140.285 24.7623 140.184 25.2901 140.19 25.8221C140.184 26.5315 140.372 27.2289 140.734 27.8394C141.061 28.4368 141.547 28.9329 142.137 29.2733C142.737 29.6042 143.411 29.7777 144.095 29.7777C144.78 29.7777 145.454 29.6042 146.053 29.2733C146.647 28.9286 147.139 28.4341 147.481 27.8394C147.816 27.2196 147.991 26.5264 147.992 25.8221C148.003 25.2909 147.907 24.7629 147.71 24.2696C147.513 23.7763 147.218 23.3279 146.843 22.9512C146.492 22.575 146.067 22.2759 145.594 22.073C145.121 21.87 144.611 21.7677 144.097 21.7724Z" fill="#CCCCCC"/>
<path d="M137.83 19.7673L136.773 20.5814C136.211 19.8463 135.482 19.2558 134.647 18.8589C133.754 18.4312 132.771 18.2237 131.782 18.2539C130.792 18.284 129.824 18.5508 128.959 19.032C128.072 19.519 127.332 20.2344 126.814 21.104C126.314 22.0065 126.06 23.0251 126.079 24.057C126.061 24.8213 126.203 25.581 126.495 26.2877C126.786 26.9943 127.222 27.6324 127.774 28.1613C128.336 28.7086 129.002 29.1373 129.733 29.4218C130.463 29.7062 131.244 29.8407 132.028 29.8171C132.935 29.825 133.832 29.6277 134.652 29.24C135.472 28.8522 136.194 28.2841 136.764 27.578L137.821 28.3922C137.157 29.2447 136.296 29.9233 135.312 30.37C134.252 30.8547 133.098 31.0975 131.934 31.0809C129.591 31.0809 127.729 30.3032 126.347 28.7143C125.215 27.3796 124.607 25.679 124.636 23.9294C124.617 23 124.794 22.077 125.154 21.2202C125.515 20.3635 126.051 19.5921 126.729 18.9561C127.415 18.2866 128.227 17.7615 129.119 17.4119C130.011 17.0623 130.964 16.8952 131.921 16.9206C133.1 16.8987 134.267 17.1592 135.324 17.6801C136.327 18.1462 137.19 18.8656 137.83 19.7673Z" fill="#CCCCCC"/>
<path d="M114.586 20.7819H117.083V21.8027C117.542 21.3877 118.062 21.0473 118.627 20.7941C119.075 20.6215 119.55 20.531 120.03 20.5267C120.501 20.5179 120.969 20.6058 121.405 20.7851C121.841 20.9643 122.235 21.231 122.564 21.5688C123.138 22.1582 123.421 23.021 123.421 24.1633V30.7467H120.948V26.378C120.98 25.5809 120.929 24.7827 120.796 23.9962C120.708 23.6496 120.511 23.3406 120.234 23.1151C119.955 22.9013 119.609 22.7936 119.258 22.8113C119.017 22.8051 118.776 22.847 118.551 22.9347C118.326 23.0223 118.12 23.1539 117.946 23.3217C117.558 23.6969 117.297 24.1848 117.202 24.7162C117.099 25.3844 117.059 26.0608 117.083 26.7365V30.7315H114.586V20.7819Z" fill="#F9BD15"/>
<path d="M113.497 26.4843H105.462C105.551 27.1401 105.875 27.7413 106.373 28.1765C106.921 28.6081 107.602 28.8339 108.299 28.8145C108.75 28.8167 109.197 28.7298 109.614 28.5588C110.031 28.3878 110.41 28.136 110.73 27.818L112.832 28.8145C112.349 29.5204 111.692 30.0896 110.924 30.4672C110.112 30.8349 109.227 31.0126 108.336 30.9867C107.631 31.014 106.928 30.8972 106.27 30.6433C105.611 30.3894 105.012 30.0039 104.508 29.5102C104.023 29.0292 103.643 28.4535 103.39 27.8189C103.138 27.1844 103.019 26.5046 103.041 25.822C103.015 25.1226 103.132 24.4254 103.384 23.7725C103.636 23.1197 104.019 22.525 104.508 22.0245C104.984 21.5299 105.559 21.141 106.196 20.883C106.832 20.6249 107.516 20.5036 108.202 20.5267C109.761 20.5267 111.049 21.0098 112.021 22.0245C112.993 23.0392 113.491 24.3394 113.491 26.0012L113.497 26.4843ZM110.997 24.5278C110.84 23.974 110.498 23.4907 110.028 23.1576C109.503 22.8036 108.881 22.6203 108.247 22.6328C107.614 22.6453 107 22.853 106.489 23.2275C106.079 23.5763 105.765 24.0239 105.577 24.5278H110.997Z" fill="#F9BD15"/>
<path d="M99.4234 16.9207H101.921V30.7316H99.4234V29.6895C98.9933 30.1144 98.49 30.4582 97.9378 30.7042C97.4334 30.8999 96.8959 30.9959 96.3549 30.9868C95.7241 30.9884 95.1001 30.8563 94.5241 30.5992C93.9481 30.3421 93.4331 29.9658 93.0131 29.4951C92.0767 28.4886 91.5746 27.1537 91.6156 25.7796C91.6156 24.2332 92.0561 22.9785 92.9767 21.979C93.3959 21.5133 93.9099 21.1428 94.4842 20.8923C95.0586 20.6419 95.6798 20.5172 96.3063 20.5268C96.8804 20.5269 97.4493 20.6351 97.9833 20.8458C98.5211 21.0988 99.0089 21.4467 99.4234 21.8727V16.9207ZM96.7985 22.8266C96.4366 22.8171 96.0768 22.8848 95.7432 23.0252C95.4095 23.1656 95.1095 23.3754 94.8633 23.6408C94.3668 24.2336 94.0948 24.9821 94.0948 25.7553C94.0948 26.5285 94.3668 27.277 94.8633 27.8697C95.1067 28.138 95.4049 28.3509 95.7378 28.494C96.0706 28.6371 96.4302 28.707 96.7924 28.6991C97.1558 28.7094 97.5173 28.6431 97.8534 28.5044C98.1894 28.3656 98.4925 28.1577 98.7428 27.894C99.271 27.3008 99.5458 26.5243 99.5084 25.731C99.5253 25.3474 99.4664 24.9643 99.335 24.6036C99.2036 24.2428 99.0024 23.9115 98.7428 23.6286C98.4912 23.3686 98.1887 23.1631 97.8542 23.0251C97.5197 22.8871 97.1603 22.8196 96.7985 22.8266Z" fill="#F9BD15"/>
<path d="M88.2227 16.9207H90.726V30.7316H88.2227V16.9207Z" fill="#F9BD15"/>
<path d="M82.1187 20.5267C83.0462 20.5131 83.9595 20.7548 84.7588 21.2254C85.5716 21.6687 86.2409 22.3348 86.688 23.1455C87.1557 23.9342 87.4003 24.8351 87.3958 25.7521C87.3958 26.679 87.1517 27.5896 86.688 28.3921C86.2426 29.1904 85.5869 29.8513 84.7922 30.3031C83.9799 30.77 83.0555 31.0064 82.1187 30.9866C81.4393 30.9973 80.765 30.8679 80.1378 30.6065C79.5106 30.3452 78.9439 29.9575 78.4731 29.4676C77.9714 28.9646 77.5772 28.3649 77.3142 27.705C77.0512 27.0451 76.9249 26.3386 76.9431 25.6284C76.9613 24.9182 77.1235 24.2191 77.4199 23.5735C77.7163 22.9279 78.1408 22.3492 78.6675 21.8725C79.6032 20.9986 80.8385 20.5169 82.1187 20.5267ZM82.1582 22.8659C81.7945 22.8606 81.4335 22.9299 81.0976 23.0694C80.7616 23.2089 80.4578 23.4157 80.2048 23.6771C79.9424 23.9561 79.7385 24.2847 79.6049 24.6437C79.4713 25.0026 79.4109 25.3846 79.427 25.7673C79.4022 26.5427 79.6813 27.2971 80.2048 27.8696C80.4577 28.1286 80.7609 28.3331 81.0958 28.4706C81.4307 28.608 81.7902 28.6754 82.1522 28.6686C82.5156 28.6783 82.877 28.611 83.2126 28.4712C83.5482 28.3314 83.8504 28.1223 84.0995 27.8574C84.3637 27.5793 84.5694 27.251 84.7045 26.892C84.8397 26.533 84.9015 26.1506 84.8864 25.7673C84.9065 25.3847 84.8485 25.0021 84.7158 24.6427C84.5831 24.2834 84.3786 23.9548 84.1147 23.6771C83.8639 23.4121 83.56 23.2028 83.2229 23.0631C82.8858 22.9233 82.523 22.8561 82.1582 22.8659Z" fill="#F9BD15"/>
<path d="M75.3436 19.4817L73.5208 21.2437C73.0209 20.6786 72.407 20.2258 71.7194 19.9153C71.0318 19.6048 70.2863 19.4435 69.5318 19.4422C68.9148 19.4263 68.3009 19.5349 67.7267 19.7614C67.1526 19.988 66.6299 20.3278 66.19 20.7607C65.7562 21.1726 65.4139 21.671 65.1852 22.2237C64.9565 22.7764 64.8465 23.3709 64.8623 23.9689C64.8515 24.5814 64.9674 25.1895 65.2027 25.7552C65.4379 26.3208 65.7875 26.8318 66.2295 27.256C66.6806 27.7053 67.2183 28.0582 67.8101 28.2932C68.4018 28.5282 69.0351 28.6405 69.6716 28.6231C70.458 28.648 71.2363 28.4579 71.9227 28.0733C72.5718 27.642 73.0849 27.0351 73.4023 26.3233H69.4923V23.9172H76.2763L76.2914 24.4823C76.2866 25.6627 75.9724 26.8213 75.38 27.8424C74.8101 28.8342 73.9926 29.6612 73.0073 30.2424C71.9566 30.8218 70.7707 31.1112 69.5713 31.0809C68.2657 31.0984 66.977 30.7848 65.8254 30.1695C64.7332 29.5594 63.8351 28.6539 63.234 27.5568C62.5928 26.4494 62.2592 25.1907 62.2679 23.9111C62.2523 22.1955 62.8836 20.537 64.036 19.266C65.4396 17.6953 67.2624 16.9024 69.5045 16.9024C70.6292 16.8952 71.7436 17.1175 72.7795 17.5556C73.7645 18.0027 74.6397 18.6602 75.3436 19.4817Z" fill="#F9BD15"/>
<path d="M74.1927 39.7544C71.9265 40.7579 69.4709 41.2625 66.9926 41.234C64.0556 41.2723 61.1594 40.5446 58.5894 39.1225C56.1388 37.787 54.1157 35.786 52.7533 33.3503C51.368 30.8955 50.6844 28.0671 50.6844 24.9015C50.6844 20.3627 52.2369 16.5195 55.3569 13.4268C58.477 10.3341 62.2806 8.75129 66.8377 8.75129C72.2028 8.75129 77.0414 11.0248 81.3534 15.5717L87.6816 9.54725C85.1175 6.56278 81.941 4.16527 78.368 2.51765C74.7949 0.870035 70.909 0.0109235 66.9744 -0.00129615C62.4582 -0.0267478 58.0134 1.12504 54.0779 3.34054C50.2603 5.41566 47.0785 8.48932 44.8727 12.2329C42.7248 15.915 41.6523 20.1318 41.6523 24.8741C41.6523 32.1958 44.0068 38.199 48.7158 42.8836C53.4247 47.5683 59.4654 49.9106 66.8377 49.9106C70.8418 49.9106 74.4084 49.2524 77.5376 47.9359C80.6668 46.6194 83.9864 44.2416 87.4963 40.8026L81.3595 34.3984C78.7488 36.9848 76.3599 38.7701 74.1927 39.7544Z" fill="#CCCCCC"/>
<path d="M38.1976 24.6979H25.4379V33.2044H39.1911C37.8867 35.9954 36.1571 38.0521 34.0021 39.3747C31.8572 40.6902 29.2233 41.3373 26.1032 41.3373C21.2889 41.3373 17.2382 39.7474 13.9511 36.5675C12.3663 35.0689 11.1112 33.2564 10.266 31.2457C9.42066 29.235 9.00367 27.0702 9.04159 24.8893C9.00573 22.779 9.40907 20.6843 10.226 18.7382C11.0429 16.7922 12.2556 15.0372 13.787 13.5848C16.9385 10.4799 20.8555 8.92546 25.5381 8.92141C30.9094 8.92141 35.6031 11.0723 39.6407 15.3165L39.7349 15.2345C40.2873 13.591 40.9996 12.0056 41.8615 10.5012C42.545 9.34118 43.3147 8.23423 44.1643 7.18973C41.8463 5.01754 39.4949 3.38915 37.0918 2.36533C33.4188 0.82246 29.4702 0.0430907 25.4865 0.0746521C17.5876 0.0746521 11.1713 2.84534 6.23748 8.38672C2.07234 13.0228 0.000396203 18.5125 0.000396203 24.7952C-0.0246904 29.2942 1.14196 33.7197 3.38173 37.6217C5.51213 41.479 8.68956 44.6553 12.5475 46.7845C16.4179 48.9313 20.818 50.0038 25.7477 50.0017C30.3554 50.0017 34.3748 49.0184 37.8057 47.0518C40.0037 45.7879 41.9584 44.1418 43.578 42.1909C40.0265 37.3665 38.1976 31.5943 38.1976 24.8802V24.6979Z" fill="#F9BD15"/>
<path d="M186.954 29.723V27.8885H187.884C187.959 27.8885 188.04 27.91 188.128 27.9531C188.215 27.9946 188.29 28.0592 188.351 28.147C188.414 28.2332 188.446 28.3426 188.446 28.4751C188.446 28.6094 188.413 28.7237 188.349 28.8182C188.284 28.911 188.205 28.9814 188.113 29.0295C188.022 29.0775 187.935 29.1016 187.854 29.1016H187.183V28.8033H187.73C187.785 28.8033 187.843 28.7759 187.906 28.7212C187.971 28.6665 188.003 28.5845 188.003 28.4751C188.003 28.3625 187.971 28.2862 187.906 28.2464C187.843 28.2067 187.788 28.1868 187.74 28.1868H187.357V29.723H186.954ZM188.063 28.858L188.52 29.723H188.078L187.63 28.858H188.063ZM187.65 30.8168C187.375 30.8168 187.118 30.7654 186.877 30.6626C186.637 30.5599 186.426 30.4174 186.243 30.2351C186.061 30.0528 185.919 29.8415 185.816 29.6012C185.713 29.3609 185.662 29.1032 185.662 28.8281C185.662 28.553 185.713 28.2953 185.816 28.055C185.919 27.8147 186.061 27.6035 186.243 27.4212C186.426 27.2389 186.637 27.0964 186.877 26.9936C187.118 26.8909 187.375 26.8395 187.65 26.8395C187.925 26.8395 188.183 26.8909 188.423 26.9936C188.664 27.0964 188.875 27.2389 189.057 27.4212C189.24 27.6035 189.382 27.8147 189.485 28.055C189.588 28.2953 189.639 28.553 189.639 28.8281C189.639 29.1032 189.588 29.3609 189.485 29.6012C189.382 29.8415 189.24 30.0528 189.057 30.2351C188.875 30.4174 188.664 30.5599 188.423 30.6626C188.183 30.7654 187.925 30.8168 187.65 30.8168ZM187.65 30.3395C187.929 30.3395 188.182 30.2715 188.411 30.1357C188.64 29.9998 188.822 29.8175 188.958 29.5888C189.094 29.3601 189.162 29.1065 189.162 28.8281C189.162 28.5497 189.094 28.2962 188.958 28.0675C188.822 27.8388 188.64 27.6565 188.411 27.5206C188.182 27.3847 187.929 27.3168 187.65 27.3168C187.372 27.3168 187.118 27.3847 186.89 27.5206C186.661 27.6565 186.479 27.8388 186.343 28.0675C186.207 28.2962 186.139 28.5497 186.139 28.8281C186.139 29.1065 186.207 29.3601 186.343 29.5888C186.479 29.8175 186.661 29.9998 186.89 30.1357C187.118 30.2715 187.372 30.3395 187.65 30.3395Z" fill="#CCCCCC"/>
</svg>
